<mxfile host="app.diagrams.net" modified="2023-09-19T23:56:29.263Z" agent="Mozilla/5.0 (Macintosh; Intel Mac OS X 10_15_7) AppleWebKit/537.36 (KHTML, like Gecko) Chrome/116.0.0.0 Safari/537.36" etag="Ud1uH6SPck4zTHqRxTei" version="21.6.7" type="device">
  <diagram name="Page-1" id="82KIo8uVjeNNqjmCrtzA">
    <mxGraphModel dx="1026" dy="613" grid="1" gridSize="10" guides="1" tooltips="1" connect="1" arrows="1" fold="1" page="1" pageScale="1" pageWidth="850" pageHeight="1100" math="0" shadow="0">
      <root>
        <mxCell id="0" />
        <mxCell id="1" parent="0" />
        <mxCell id="zbqLVf0dmAp80nOCA1ZY-12" style="edgeStyle=orthogonalEdgeStyle;rounded=0;orthogonalLoop=1;jettySize=auto;html=1;entryX=0;entryY=0;entryDx=0;entryDy=0;" edge="1" parent="1" source="zbqLVf0dmAp80nOCA1ZY-1" target="zbqLVf0dmAp80nOCA1ZY-6">
          <mxGeometry relative="1" as="geometry">
            <Array as="points">
              <mxPoint x="530" y="200" />
              <mxPoint x="530" y="240" />
            </Array>
          </mxGeometry>
        </mxCell>
        <mxCell id="zbqLVf0dmAp80nOCA1ZY-13" style="edgeStyle=orthogonalEdgeStyle;rounded=0;orthogonalLoop=1;jettySize=auto;html=1;entryX=0;entryY=0;entryDx=0;entryDy=0;" edge="1" parent="1" source="zbqLVf0dmAp80nOCA1ZY-1" target="zbqLVf0dmAp80nOCA1ZY-4">
          <mxGeometry relative="1" as="geometry" />
        </mxCell>
        <mxCell id="zbqLVf0dmAp80nOCA1ZY-1" value="Trust Graph" style="rounded=0;whiteSpace=wrap;html=1;strokeColor=#FF3333;strokeWidth=3;" vertex="1" parent="1">
          <mxGeometry x="360" y="140" width="110" height="60" as="geometry" />
        </mxCell>
        <mxCell id="zbqLVf0dmAp80nOCA1ZY-9" style="edgeStyle=orthogonalEdgeStyle;rounded=0;orthogonalLoop=1;jettySize=auto;html=1;entryX=0;entryY=0.25;entryDx=0;entryDy=0;" edge="1" parent="1" source="zbqLVf0dmAp80nOCA1ZY-2" target="zbqLVf0dmAp80nOCA1ZY-7">
          <mxGeometry relative="1" as="geometry">
            <Array as="points">
              <mxPoint x="520" y="285" />
            </Array>
          </mxGeometry>
        </mxCell>
        <mxCell id="zbqLVf0dmAp80nOCA1ZY-14" style="edgeStyle=orthogonalEdgeStyle;rounded=0;orthogonalLoop=1;jettySize=auto;html=1;entryX=0;entryY=0.75;entryDx=0;entryDy=0;" edge="1" parent="1" source="zbqLVf0dmAp80nOCA1ZY-2" target="zbqLVf0dmAp80nOCA1ZY-4">
          <mxGeometry relative="1" as="geometry">
            <Array as="points">
              <mxPoint x="520" y="215" />
            </Array>
          </mxGeometry>
        </mxCell>
        <mxCell id="zbqLVf0dmAp80nOCA1ZY-2" value="Intra-Item Information" style="rounded=0;whiteSpace=wrap;html=1;strokeColor=#FF3333;strokeWidth=3;" vertex="1" parent="1">
          <mxGeometry x="360" y="220" width="110" height="60" as="geometry" />
        </mxCell>
        <mxCell id="zbqLVf0dmAp80nOCA1ZY-8" style="edgeStyle=orthogonalEdgeStyle;rounded=0;orthogonalLoop=1;jettySize=auto;html=1;entryX=0;entryY=1;entryDx=0;entryDy=0;" edge="1" parent="1" source="zbqLVf0dmAp80nOCA1ZY-3" target="zbqLVf0dmAp80nOCA1ZY-7">
          <mxGeometry relative="1" as="geometry">
            <Array as="points">
              <mxPoint x="560" y="330" />
            </Array>
          </mxGeometry>
        </mxCell>
        <mxCell id="zbqLVf0dmAp80nOCA1ZY-11" style="edgeStyle=orthogonalEdgeStyle;rounded=0;orthogonalLoop=1;jettySize=auto;html=1;entryX=0;entryY=0.75;entryDx=0;entryDy=0;" edge="1" parent="1" source="zbqLVf0dmAp80nOCA1ZY-3" target="zbqLVf0dmAp80nOCA1ZY-6">
          <mxGeometry relative="1" as="geometry">
            <Array as="points">
              <mxPoint x="530" y="300" />
              <mxPoint x="530" y="255" />
            </Array>
          </mxGeometry>
        </mxCell>
        <mxCell id="zbqLVf0dmAp80nOCA1ZY-3" value="Item-Rating Information" style="rounded=0;whiteSpace=wrap;html=1;" vertex="1" parent="1">
          <mxGeometry x="360" y="300" width="110" height="60" as="geometry" />
        </mxCell>
        <mxCell id="zbqLVf0dmAp80nOCA1ZY-16" style="edgeStyle=orthogonalEdgeStyle;rounded=0;orthogonalLoop=1;jettySize=auto;html=1;entryX=0;entryY=0;entryDx=0;entryDy=0;" edge="1" parent="1" source="zbqLVf0dmAp80nOCA1ZY-4" target="zbqLVf0dmAp80nOCA1ZY-15">
          <mxGeometry relative="1" as="geometry" />
        </mxCell>
        <mxCell id="zbqLVf0dmAp80nOCA1ZY-4" value="" style="rounded=0;whiteSpace=wrap;html=1;strokeColor=#FF3333;strokeWidth=3;" vertex="1" parent="1">
          <mxGeometry x="560" y="200" width="20" height="20" as="geometry" />
        </mxCell>
        <mxCell id="zbqLVf0dmAp80nOCA1ZY-17" style="edgeStyle=orthogonalEdgeStyle;rounded=0;orthogonalLoop=1;jettySize=auto;html=1;entryX=0;entryY=0.5;entryDx=0;entryDy=0;" edge="1" parent="1" source="zbqLVf0dmAp80nOCA1ZY-6" target="zbqLVf0dmAp80nOCA1ZY-15">
          <mxGeometry relative="1" as="geometry" />
        </mxCell>
        <mxCell id="zbqLVf0dmAp80nOCA1ZY-6" value="" style="rounded=0;whiteSpace=wrap;html=1;" vertex="1" parent="1">
          <mxGeometry x="560" y="240" width="20" height="20" as="geometry" />
        </mxCell>
        <mxCell id="zbqLVf0dmAp80nOCA1ZY-18" style="edgeStyle=orthogonalEdgeStyle;rounded=0;orthogonalLoop=1;jettySize=auto;html=1;entryX=0;entryY=1;entryDx=0;entryDy=0;" edge="1" parent="1" source="zbqLVf0dmAp80nOCA1ZY-7" target="zbqLVf0dmAp80nOCA1ZY-15">
          <mxGeometry relative="1" as="geometry" />
        </mxCell>
        <mxCell id="zbqLVf0dmAp80nOCA1ZY-7" value="" style="rounded=0;whiteSpace=wrap;html=1;" vertex="1" parent="1">
          <mxGeometry x="560" y="280" width="20" height="20" as="geometry" />
        </mxCell>
        <mxCell id="zbqLVf0dmAp80nOCA1ZY-15" value="" style="rounded=0;whiteSpace=wrap;html=1;" vertex="1" parent="1">
          <mxGeometry x="720" y="240" width="20" height="20" as="geometry" />
        </mxCell>
        <mxCell id="zbqLVf0dmAp80nOCA1ZY-19" value="Level 1" style="text;html=1;strokeColor=none;fillColor=none;align=center;verticalAlign=middle;whiteSpace=wrap;rounded=0;" vertex="1" parent="1">
          <mxGeometry x="385" y="100" width="60" height="30" as="geometry" />
        </mxCell>
        <mxCell id="zbqLVf0dmAp80nOCA1ZY-20" value="Level 2" style="text;html=1;strokeColor=none;fillColor=none;align=center;verticalAlign=middle;whiteSpace=wrap;rounded=0;" vertex="1" parent="1">
          <mxGeometry x="540" y="100" width="60" height="30" as="geometry" />
        </mxCell>
        <mxCell id="zbqLVf0dmAp80nOCA1ZY-21" value="Level 3" style="text;html=1;strokeColor=none;fillColor=none;align=center;verticalAlign=middle;whiteSpace=wrap;rounded=0;" vertex="1" parent="1">
          <mxGeometry x="700" y="100" width="60" height="30" as="geometry" />
        </mxCell>
        <mxCell id="zbqLVf0dmAp80nOCA1ZY-23" value="" style="whiteSpace=wrap;html=1;aspect=fixed;strokeColor=#FF3333;fillColor=#FF0000;" vertex="1" parent="1">
          <mxGeometry x="610" y="340" width="20" height="20" as="geometry" />
        </mxCell>
        <mxCell id="zbqLVf0dmAp80nOCA1ZY-24" value="Cold Start Compatible" style="text;html=1;strokeColor=none;fillColor=none;align=center;verticalAlign=middle;whiteSpace=wrap;rounded=0;" vertex="1" parent="1">
          <mxGeometry x="630" y="340" width="130" height="20" as="geometry" />
        </mxCell>
      </root>
    </mxGraphModel>
  </diagram>
</mxfile>
